<?xml version="1.0" encoding="UTF-8" standalone="no"?>
<!-- Created with Inkscape (http://www.inkscape.org/) -->

<svg
   width="118.043mm"
   height="20.656492mm"
   viewBox="0 0 118.043 20.656492"
   version="1.1"
   id="svg1"
   xml:space="preserve"
   xmlns="http://www.w3.org/2000/svg"
   xmlns:svg="http://www.w3.org/2000/svg"><defs
     id="defs1" /><g
     id="layer1"
     transform="translate(-44.12902,-108.62412)"><path
       d="m 69.247113,129.28061 q -0.584665,0 -0.992713,-0.37199 -0.408024,-0.37199 -0.408024,-0.90499 v -2.33183 h -3.914099 q -0.584663,0 -0.992711,-0.37199 -0.408025,-0.37199 -0.408025,-0.90504 V 113.4875 H 58.59284 v 2.4171 q 0,0.53305 -0.408023,0.90503 -0.408073,0.37199 -0.992713,0.37199 h -5.312368 q -0.584664,0 -0.992713,-0.37199 -0.407999,-0.37198 -0.407999,-0.90503 v -6.00348 q 0,-0.533 0.408024,-0.90499 0.408024,-0.37201 0.992712,-0.37201 h 5.312368 q 0.584664,0 0.992712,0.37201 0.408025,0.37199 0.408025,0.90499 v 2.30938 h 9.25356 v -2.30938 q 0,-0.533 0.408023,-0.90499 0.408025,-0.37201 0.992713,-0.37201 h 5.304965 q 0.584665,0 0.992689,0.37201 0.408024,0.37199 0.408,0.90499 v 6.00348 q 0,0.53305 -0.408048,0.90503 -0.408025,0.37199 -0.992665,0.37199 h -5.304989 q -0.584665,0 -0.992713,-0.37199 -0.408024,-0.37198 -0.408024,-0.90503 v -2.4171 h -3.914099 v 10.90727 h 3.914099 v -2.41709 q 0,-0.51563 0.408024,-0.89631 0.408048,-0.38069 0.992713,-0.38069 h 5.304989 q 0.58464,0 0.992665,0.38069 0.408048,0.38068 0.408048,0.89631 v 6.02595 q 0,0.533 -0.408048,0.90499 -0.408025,0.37199 -0.992665,0.37199 z M 51.879736,109.90112 v 6.00348 z m 17.367377,12.07656 v 6.02595 z m 0,-12.07656 v 6.00348 z m 0,6.00348 h 5.304989 v -6.00348 h -5.304989 z m 0,12.09903 h 5.304989 v -6.02595 H 69.247113 Z M 51.879736,115.9046 h 5.312368 v -6.00348 h -5.312368 z"
       id="path1"
       style="fill:#ffffff;stroke-width:0.0305565" /><path
       style="font-size:20.0053px;font-family:'Baloo 2';-inkscape-font-specification:'Baloo 2, ';fill:#ffffff;stroke-width:1.6671"
       d="m 90.693124,109.89074 q 0,-0.42011 0.30008,-0.70019 0.300079,-0.30008 0.740196,-0.30008 0.460122,0 0.740196,0.30008 0.280074,0.28008 0.280074,0.70019 0,0.42011 -0.280074,0.72019 -0.280074,0.28008 -0.740196,0.28008 -0.440117,0 -0.740196,-0.28008 -0.30008,-0.30008 -0.30008,-0.72019 z m 0.240064,6.88182 h 1.600424 v 5.24139 q -0.100027,0.04 -0.30008,0.08 -0.200053,0.06 -0.440116,0.06 -0.420112,0 -0.64017,-0.16004 -0.220058,-0.18005 -0.220058,-0.56015 z m 1.600424,0.78021 h -1.600424 v -4.70125 q 0.100026,-0.04 0.300079,-0.08 0.220059,-0.06 0.460122,-0.06 0.420111,0 0.620164,0.18005 0.220059,0.16004 0.220059,0.56014 z m 9.422478,2.92077 v -6.72178 l 1.60043,-0.02 v 6.8018 q 0,0.3801 -0.18005,0.62016 -0.16004,0.22006 -0.52014,0.44012 -0.4001,0.26007 -1.1403,0.48013 -0.7402,0.24006 -1.70045,0.24006 -1.440383,0 -2.540675,-0.50013 -1.100291,-0.50013 -1.720455,-1.56041 -0.620165,-1.08029 -0.620165,-2.78074 0,-1.74046 0.600159,-2.82075 0.620165,-1.08028 1.66044,-1.58042 1.040276,-0.52014 2.280604,-0.52014 0.780212,0 1.480392,0.22006 0.70019,0.22006 1.10029,0.54015 v 1.48039 q -0.3801,-0.3801 -1.00026,-0.64017 -0.60016,-0.28008 -1.420379,-0.28008 -0.820217,0 -1.520403,0.3601 -0.700185,0.34009 -1.120297,1.1403 -0.420111,0.80021 -0.420111,2.14057 0,1.82048 0.880233,2.6607 0.880233,0.82022 2.34062,0.82022 0.700187,0 1.140307,-0.14004 0.46012,-0.16004 0.82021,-0.3801 z m 1.60043,-6.34168 -1.60043,0.02 v -5.06134 q 0.10003,-0.04 0.30008,-0.08 0.22006,-0.06 0.44012,-0.06 0.44012,0 0.64017,0.18005 0.22006,0.16004 0.22006,0.54014 z m 3.62097,4.32115 -0.08,-1.26034 6.0416,-0.82021 q -0.08,-1.10029 -0.7602,-1.80048 -0.68018,-0.72019 -1.8805,-0.72019 -1.24032,0 -2.06054,0.90024 -0.80021,0.88023 -0.80021,2.54067 v 0.44012 q 0.14003,1.60042 1.04027,2.44064 0.92025,0.82022 2.50066,0.82022 0.84023,0 1.52041,-0.28007 0.68018,-0.28008 1.08028,-0.60016 0.22006,0.14004 0.34009,0.34009 0.14004,0.18005 0.14004,0.42011 0,0.3801 -0.44012,0.72019 -0.42011,0.32009 -1.1403,0.52014 -0.70018,0.20005 -1.58042,0.20005 -1.54041,0 -2.68071,-0.56015 -1.12029,-0.56015 -1.74046,-1.66044 -0.60016,-1.12029 -0.60016,-2.72072 0,-1.1403 0.32009,-2.02053 0.34009,-0.90024 0.92024,-1.52041 0.60016,-0.62016 1.42038,-0.94024 0.82021,-0.3401 1.78047,-0.3401 1.22032,0 2.14057,0.52014 0.94025,0.52014 1.46038,1.46039 0.54015,0.92024 0.54015,2.12056 0,0.44012 -0.20006,0.64017 -0.20005,0.18005 -0.56014,0.22006 z m 14.08372,-4.56121 q -1.36036,0 -2.2606,0.92024 -0.90024,0.92025 -0.90024,2.6407 0,1.70045 0.86023,2.6207 0.88023,0.92024 2.30061,0.92024 0.84022,0 1.40037,-0.22006 0.56015,-0.24006 1.00026,-0.54014 0.22006,0.12003 0.3601,0.30008 0.14004,0.18005 0.14004,0.44012 0,0.56014 -0.84023,0.96025 -0.82021,0.3801 -2.06054,0.3801 -1.38037,0 -2.48066,-0.52014 -1.08029,-0.54014 -1.70045,-1.62043 -0.62016,-1.08028 -0.62016,-2.72072 0,-1.62043 0.64016,-2.70071 0.64017,-1.10029 1.72046,-1.64044 1.10029,-0.56015 2.40064,-0.56015 1.24033,0 2.04054,0.42012 0.82021,0.42011 0.82021,0.96025 0,0.24006 -0.14003,0.42011 -0.14004,0.18005 -0.3601,0.28008 -0.44011,-0.30008 -0.98026,-0.52014 -0.52014,-0.22006 -1.34035,-0.22006 z m 13.62364,3.54094 q 0,1.48039 -0.56015,2.58068 -0.56015,1.10029 -1.58042,1.70045 -1.02027,0.60016 -2.40063,0.60016 -1.38037,0 -2.42065,-0.60016 -1.02027,-0.60016 -1.58041,-1.70045 -0.56015,-1.10029 -0.56015,-2.58068 0,-1.5004 0.56015,-2.58069 0.58015,-1.10029 1.60042,-1.70045 1.04028,-0.60016 2.40064,-0.60016 1.36036,0 2.38063,0.60016 1.02027,0.60016 1.58042,1.70045 0.58015,1.08029 0.58015,2.58069 z m -4.5412,-3.56095 q -1.34036,0 -2.14057,0.96026 -0.78021,0.94025 -0.78021,2.60069 0,1.68044 0.7602,2.62069 0.78021,0.94025 2.16058,0.94025 1.36036,0 2.12056,-0.94025 0.7802,-0.96025 0.7802,-2.62069 0,-1.66044 -0.7802,-2.60069 -0.7602,-0.96026 -2.12056,-0.96026 z m 14.48382,1.78048 v 2.30061 h -1.60042 v -2.18058 q 0,-0.98026 -0.58016,-1.44038 -0.56014,-0.46013 -1.50039,-0.46013 -0.62017,0 -1.20032,0.20006 -0.58016,0.20005 -0.98026,0.46012 v 3.42091 h -1.60043 v -3.34089 q 0,-0.40011 0.16005,-0.68018 0.18004,-0.28007 0.60016,-0.54014 0.54014,-0.34009 1.36036,-0.58016 0.84022,-0.26007 1.68044,-0.26007 1.02027,0 1.80048,0.32009 0.78021,0.30008 1.16031,0.84022 0.12003,0.12003 0.20005,0.22006 0.08,0.10003 0.16004,0.26007 0.14004,0.24006 0.24007,0.62016 0.10002,0.3801 0.10002,0.84023 z m 5.86155,0.04 v 2.2606 h -1.60042 v -2.18058 q 0,-0.98026 -0.56015,-1.44038 -0.56015,-0.46013 -1.5004,-0.46013 -0.70018,0 -1.36036,0.30008 -0.64017,0.28008 -1.1603,0.82022 l -0.64017,-1.16031 q 0.52014,-0.52013 1.36036,-0.90023 0.84022,-0.38011 1.92051,-0.38011 1.08028,0 1.86049,0.3401 0.80021,0.34009 1.24033,1.04027 0.44011,0.70019 0.44011,1.76047 z m -13.32353,1.20032 h 1.60043 v 5.12135 q -0.10003,0.04 -0.30008,0.08 -0.20005,0.06 -0.44012,0.06 -0.42011,0 -0.64017,-0.16004 -0.22006,-0.18005 -0.22006,-0.56015 z m 5.86156,0 h 1.60042 v 5.12135 q -0.10002,0.04 -0.32008,0.08 -0.20006,0.06 -0.42011,0.06 -0.44012,0 -0.66018,-0.16004 -0.20005,-0.18005 -0.20005,-0.56015 z m 5.86155,0 h 1.60042 v 5.12135 q -0.10002,0.04 -0.32008,0.08 -0.20005,0.06 -0.42011,0.06 -0.44012,0 -0.66018,-0.16004 -0.20005,-0.18005 -0.20005,-0.56015 z m 8.54226,5.42143 q 1.32035,0 2.34062,-0.54014 1.02027,-0.54014 1.58042,-1.62043 0.58016,-1.10029 0.58016,-2.74073 0,-1.70045 -0.64017,-2.76073 -0.62017,-1.08028 -1.70045,-1.58042 -1.06028,-0.52014 -2.38063,-0.52014 -0.96026,0 -1.72046,0.26007 -0.7402,0.24007 -1.28034,0.54015 -0.44012,0.26007 -0.58015,0.50013 -0.14004,0.24006 -0.14004,0.64017 v 6.60175 h 1.60042 v -6.64176 q 0.40011,-0.22006 0.90024,-0.40011 0.50014,-0.18005 1.22033,-0.18005 0.82021,0 1.5204,0.34009 0.72019,0.3401 1.1403,1.1203 0.44012,0.7602 0.44012,2.08055 0,1.8805 -0.86023,2.74073 -0.84022,0.84022 -2.24059,0.84022 -0.86023,0 -1.4804,-0.28007 -0.60016,-0.30008 -1.00026,-0.68018 v 1.48039 q 0.34009,0.30008 1.08029,0.54014 0.7602,0.26007 1.62042,0.26007 z m -2.34062,-1.76046 -1.60042,-0.04 v 4.54121 q 0,0.3801 0.22006,0.56015 0.22006,0.18004 0.64017,0.18004 0.24006,0 0.44011,-0.06 0.20006,-0.04 0.30008,-0.08 z"
       id="text1"
       transform="scale(0.97298952,1.0277603)"
       aria-label="idecomp" /></g></svg>
